<?xml version="1.0" encoding="UTF-8"?>
<svg id="Layer_1" data-name="Layer 1" xmlns="http://www.w3.org/2000/svg" viewBox="0 0 800 300">
  <defs>
    <style>
      .cls-1 {
        fill: #33c9c1;
      }

      .cls-2 {
        fill: #121416;
      }

      .cls-3 {
        stroke: #fff;
        stroke-width: 2.99px;
      }

      .cls-3, .cls-4 {
        fill: none;
        stroke-linecap: round;
        stroke-linejoin: round;
      }

      .cls-4 {
        stroke: #121416;
        stroke-width: 3.74px;
      }
    </style>
  </defs>
  <g id="full_logo_color" data-name="full logo color">
    <g id="logotype">
      <g>
        <path class="cls-2" d="M297.06,137.97v4.59c-1.48-.86-3.65-1.32-5.83-1.32-6.92,0-12.05,4.59-12.05,13.14v22.23h-4.66v-38.63h4.43v8.63c1.56-4.97,5.91-9.64,12.83-9.64,1.71,0,3.89.39,5.29,1.01Z"/>
        <path class="cls-2" d="M299,157.32c0-11.81,9.02-20.36,20.13-20.36s20.13,8.63,20.13,20.36-8.86,20.37-20.13,20.37-20.13-8.55-20.13-20.37ZM334.76,157.32c0-9.64-6.68-16.24-15.62-16.24s-15.62,6.61-15.62,16.24,6.92,16.17,15.62,16.17,15.62-6.61,15.62-16.17Z"/>
        <path class="cls-2" d="M383.58,118.3v58.3h-4.43v-9.41c-2.72,6.69-8.39,10.49-15.39,10.49-10.57,0-18.57-8.24-18.57-20.29s8-20.44,18.57-20.44c6.76,0,12.36,3.58,15.16,9.95v-28.6h4.67ZM379.54,157.32c0-9.64-6.53-16.24-15-16.24s-14.85,6.3-14.85,16.32,6.37,16.09,14.85,16.09,15-6.53,15-16.17Z"/>
        <path class="cls-2" d="M393.54,160.35v-22.39h4.67v22.39c0,8.01,4.58,13.14,11.97,13.14s11.97-5.13,11.97-13.14v-22.39h4.67v22.39c0,10.88-6.53,17.33-16.63,17.33s-16.63-6.45-16.63-17.33Z"/>
        <path class="cls-2" d="M434.59,157.32c0-11.74,8.55-20.36,20.36-20.36,3.42,0,6.61.78,9.1,2.25l-.08,4.12c-2.18-1.32-5.13-2.25-8.78-2.25-9.33,0-16.09,6.76-16.09,16.24s6.84,16.17,16.09,16.17c3.65,0,6.61-.93,8.78-2.25l.08,4.12c-2.49,1.48-5.67,2.33-9.1,2.33-11.89,0-20.36-8.63-20.36-20.37Z"/>
        <path class="cls-2" d="M481.62,142.08v22.93c0,5.44,2.41,8.24,7.07,8.24,2.02,0,4.2-.54,5.6-1.4v4.28c-1.56.93-4.04,1.56-6.3,1.56-7.07,0-11.04-4.66-11.04-12.67v-22.93h-6.84v-4.12h6.84v-11.89h4.66v11.89h12.67v4.12h-12.67Z"/>
        <path class="cls-2" d="M579.81,158.56h-31.56c.54,9.95,6.22,15,16.09,15,5.75,0,10.73-1.71,13.84-3.81v4.2c-3.65,2.41-9.17,3.73-14.22,3.73-12.75,0-20.21-7.62-20.21-20.68,0-12.13,8.01-20.05,18.81-20.05s17.49,7.62,17.49,18.81c0,.93-.08,1.86-.23,2.8ZM548.25,154.75h27.44c-.23-8.39-4.58-13.91-13.21-13.91-7.77,0-13.45,5.05-14.22,13.91Z"/>
        <path class="cls-2" d="M621.79,158.56h-31.56c.54,9.95,6.22,15,16.09,15,5.75,0,10.73-1.71,13.83-3.81v4.2c-3.65,2.41-9.17,3.73-14.22,3.73-12.75,0-20.21-7.62-20.21-20.68,0-12.13,8-20.05,18.81-20.05s17.49,7.62,17.49,18.81c0,.93-.08,1.86-.23,2.8ZM590.23,154.75h27.44c-.23-8.39-4.59-13.91-13.22-13.91-7.77,0-13.45,5.05-14.22,13.91Z"/>
        <path class="cls-2" d="M669.06,157.16c0,11.74-8.08,20.52-18.89,20.52-6.84,0-12.44-3.5-15.31-9.87v24.72h-4.66v-54.56h4.43v9.25c2.8-6.53,8.47-10.26,15.55-10.26,10.88,0,18.89,8.63,18.89,20.21ZM664.55,157.16c0-9.41-6.45-16.17-15.16-16.17s-15.16,6.68-15.16,16.24,6.53,16.25,15.16,16.25,15.16-6.76,15.16-16.32Z"/>
        <path class="cls-2" d="M711.04,158.56h-31.56c.54,9.95,6.22,15,16.09,15,5.75,0,10.73-1.71,13.83-3.81v4.2c-3.65,2.41-9.17,3.73-14.22,3.73-12.75,0-20.21-7.62-20.21-20.68,0-12.13,8-20.05,18.81-20.05s17.49,7.62,17.49,18.81c0,.93-.08,1.86-.23,2.8ZM679.48,154.75h27.44c-.23-8.39-4.59-13.91-13.22-13.91-7.77,0-13.45,5.05-14.22,13.91Z"/>
        <path class="cls-2" d="M741.99,137.97v4.59c-1.48-.86-3.65-1.32-5.83-1.32-6.92,0-12.05,4.59-12.05,13.14v22.23h-4.66v-38.63h4.43v8.63c1.56-4.97,5.91-9.64,12.83-9.64,1.71,0,3.89.39,5.29,1.01Z"/>
      </g>
      <g>
        <path class="cls-4" d="M232.11,156.57c3.9,0,7.8-.01,11.7,0,4.37.01,8.54-.66,12.25-2.74,4.44-2.48,7.43-5.93,8.59-10.35,2.08-7.91-1.74-15.19-10.15-19.15-2.54-1.2-5.38-1.67-8.37-1.84-1.11-.07-1.03-.06-2.06-.07"/>
        <path class="cls-4" d="M238.45,130.63c.17-.25.13-.51.13-.76,0-2.24.02-4.47-.01-6.71-.01-.8-.36-1.53-1.41-2.15-1.09-.63-2.34-.74-3.69-.51-1.58.27-2.54.95-2.73,1.9-.12.58-.18,1.16-.17,1.75.02,7.6-.05,15.2.07,22.8.02,1.53-.18,3.05-.08,4.58.1,1.52.02,3.05.02,4.57v13.65c0,1.52,0,3.05,0,4.57,0,.38,0,.76,0,1.14"/>
      </g>
      <g>
        <path class="cls-4" d="M502.31,120.05c0,23.68,0-1.45,0,22.23,0,.91.03,1.77.6,2.55.48.67.48,1.42,0,2.09-.56.78-.6,1.65-.6,2.55.01,8.39,0,16.79,0,25.18"/>
        <path class="cls-4" d="M503.36,146.48c6.38,5,12.61,10.17,18.89,15.29,4.9,3.99,9.85,7.92,14.7,11.98.6.5,1.32,1.01,2.23.77"/>
        <path class="cls-4" d="M522.7,138.54c3.44-3.46,6.74-7.05,10.04-10.65,1.27-1.38,1.78-4.12,1.05-5.39-1.12-1.95-2.88-2.74-5.24-2.23-1.29.28-2.27,1.14-3.15,2.09-6.46,6.97-13.05,13.83-19.49,20.83-.75.81-1.53,1.6-2.54,2.1"/>
      </g>
    </g>
    <g id="submark_color" data-name="submark color">
      <circle class="cls-1" cx="132.03" cy="147.99" r="75"/>
      <path class="cls-3" d="M101.06,164.46c3.5,0,7.01-.01,10.51,0,3.93.02,7.67-.7,11-2.89,3.99-2.62,6.67-6.25,7.71-10.91,1.87-8.34-1.57-16.01-9.12-20.19-2.28-1.26-4.83-1.96-7.52-1.94-.92,0-1.85-.07-2.78-.08"/>
      <path class="cls-3" d="M106.61,141.64c.13-.32.1-.66.1-.99,0-2.91.02-5.82,0-8.73,0-1.04-.27-2-1.07-2.79-.83-.83-1.77-.97-2.79-.66-1.2.36-1.92,1.24-2.06,2.47-.09.75-.13,1.51-.13,2.28.02,9.89-.04,19.77.05,29.66.02,1.99-.14,3.97-.06,5.95.08,1.98.02,3.97.02,5.95v17.76c0,1.98,0,3.97,0,5.95,0,.5,0,.99,0,1.49"/>
      <path class="cls-3" d="M139.04,96.01c0,15.67,0,31.35,0,47.02,0,.6.02,1.17.39,1.69.32.44.32.94,0,1.38-.37.52-.4,1.09-.39,1.69,0,5.56,0,11.11,0,16.67"/>
      <path class="cls-3" d="M139.74,145.81c4.22,3.31,8.34,6.73,12.5,10.11,3.24,2.64,6.52,5.24,9.73,7.93.4.33.87.67,1.48.51"/>
      <path class="cls-3" d="M152.53,140.55c2.27-2.29,4.46-4.67,6.64-7.04.84-.92,1.18-2.73.7-3.57-.74-1.29-1.9-1.81-3.47-1.48-.85.18-1.5.76-2.08,1.38-4.28,4.61-8.64,9.15-12.9,13.78-.5.54-1.01,1.06-1.68,1.39"/>
    </g>
  </g>
</svg>