<?xml version="1.0" encoding="UTF-8"?>
<svg id="Layer_1" data-name="Layer 1" xmlns="http://www.w3.org/2000/svg" viewBox="0 0 800 300">
  <defs>
    <style>
      .cls-1 {
        fill: #33c9c1;
      }

      .cls-2 {
        fill: #fff;
      }

      .cls-3 {
        fill: #121416;
      }
    </style>
  </defs>
  <g id="full_logo_color" data-name="full logo color">
    <g>
      <g>
        <path class="cls-3" d="M297.06,137.97v4.59c-1.48-.86-3.65-1.32-5.83-1.32-6.92,0-12.05,4.59-12.05,13.14v22.23h-4.66v-38.63h4.43v8.63c1.56-4.97,5.91-9.64,12.83-9.64,1.71,0,3.89.39,5.29,1.01Z"/>
        <path class="cls-3" d="M299,157.32c0-11.81,9.02-20.36,20.13-20.36s20.13,8.63,20.13,20.36-8.86,20.37-20.13,20.37-20.13-8.55-20.13-20.37ZM334.76,157.32c0-9.64-6.68-16.24-15.62-16.24s-15.62,6.61-15.62,16.24,6.92,16.17,15.62,16.17,15.62-6.61,15.62-16.17Z"/>
        <path class="cls-3" d="M383.58,118.3v58.3h-4.43v-9.41c-2.72,6.69-8.39,10.49-15.39,10.49-10.57,0-18.57-8.24-18.57-20.29s8-20.44,18.57-20.44c6.76,0,12.36,3.58,15.16,9.95v-28.6h4.67ZM379.54,157.32c0-9.64-6.53-16.24-15-16.24s-14.85,6.3-14.85,16.32,6.37,16.09,14.85,16.09,15-6.53,15-16.17Z"/>
        <path class="cls-3" d="M393.54,160.35v-22.39h4.67v22.39c0,8.01,4.58,13.14,11.97,13.14s11.97-5.13,11.97-13.14v-22.39h4.67v22.39c0,10.88-6.53,17.33-16.63,17.33s-16.63-6.45-16.63-17.33Z"/>
        <path class="cls-3" d="M434.59,157.32c0-11.74,8.55-20.36,20.36-20.36,3.42,0,6.61.78,9.1,2.25l-.08,4.12c-2.18-1.32-5.13-2.25-8.78-2.25-9.33,0-16.09,6.76-16.09,16.24s6.84,16.17,16.09,16.17c3.65,0,6.61-.93,8.78-2.25l.08,4.12c-2.49,1.48-5.67,2.33-9.1,2.33-11.89,0-20.36-8.63-20.36-20.37Z"/>
        <path class="cls-3" d="M481.62,142.08v22.93c0,5.44,2.41,8.24,7.07,8.24,2.02,0,4.2-.54,5.6-1.4v4.28c-1.56.93-4.04,1.56-6.3,1.56-7.07,0-11.04-4.66-11.04-12.67v-22.93h-6.84v-4.12h6.84v-11.89h4.66v11.89h12.67v4.12h-12.67Z"/>
        <path class="cls-3" d="M579.81,158.56h-31.56c.54,9.95,6.22,15,16.09,15,5.75,0,10.73-1.71,13.84-3.81v4.2c-3.65,2.41-9.17,3.73-14.22,3.73-12.75,0-20.21-7.62-20.21-20.68,0-12.13,8.01-20.05,18.81-20.05s17.49,7.62,17.49,18.81c0,.93-.08,1.86-.23,2.8ZM548.25,154.75h27.44c-.23-8.39-4.58-13.91-13.21-13.91-7.77,0-13.45,5.05-14.22,13.91Z"/>
        <path class="cls-3" d="M621.79,158.56h-31.56c.54,9.95,6.22,15,16.09,15,5.75,0,10.73-1.71,13.83-3.81v4.2c-3.65,2.41-9.17,3.73-14.22,3.73-12.75,0-20.21-7.62-20.21-20.68,0-12.13,8-20.05,18.81-20.05s17.49,7.62,17.49,18.81c0,.93-.08,1.86-.23,2.8ZM590.23,154.75h27.44c-.23-8.39-4.59-13.91-13.22-13.91-7.77,0-13.45,5.05-14.22,13.91Z"/>
        <path class="cls-3" d="M669.06,157.16c0,11.74-8.08,20.52-18.89,20.52-6.84,0-12.44-3.5-15.31-9.87v24.72h-4.66v-54.56h4.43v9.25c2.8-6.53,8.47-10.26,15.55-10.26,10.88,0,18.89,8.63,18.89,20.21ZM664.55,157.16c0-9.41-6.45-16.17-15.16-16.17s-15.16,6.68-15.16,16.24,6.53,16.25,15.16,16.25,15.16-6.76,15.16-16.32Z"/>
        <path class="cls-3" d="M711.04,158.56h-31.56c.54,9.95,6.22,15,16.09,15,5.75,0,10.73-1.71,13.83-3.81v4.2c-3.65,2.41-9.17,3.73-14.22,3.73-12.75,0-20.21-7.62-20.21-20.68,0-12.13,8-20.05,18.81-20.05s17.49,7.62,17.49,18.81c0,.93-.08,1.86-.23,2.8ZM679.48,154.75h27.44c-.23-8.39-4.59-13.91-13.22-13.91-7.77,0-13.45,5.05-14.22,13.91Z"/>
        <path class="cls-3" d="M741.99,137.97v4.59c-1.48-.86-3.65-1.32-5.83-1.32-6.92,0-12.05,4.59-12.05,13.14v22.23h-4.66v-38.63h4.43v8.63c1.56-4.97,5.91-9.64,12.83-9.64,1.71,0,3.89.39,5.29,1.01Z"/>
      </g>
      <g>
        <path class="cls-3" d="M243.95,158.45h-.14c-2.71,0-5.42,0-8.13,0h-3.56c-1.03,0-1.87-.84-1.87-1.87s.84-1.87,1.87-1.87h3.56c2.72,0,5.43,0,8.15,0,4.68.05,8.25-.78,11.33-2.5,4.11-2.3,6.7-5.39,7.69-9.19,1.85-7.06-1.56-13.41-9.14-16.99-2.01-.95-4.45-1.48-7.68-1.67-.96-.06-.98-.06-1.71-.06h-.26c-1.03,0-1.87-.85-1.86-1.89,0-1.03.84-1.86,1.87-1.86h.26c.82,0,.84,0,1.91.07,3.73.22,6.6.86,9.06,2.02,9.2,4.34,13.48,12.51,11.16,21.32-1.27,4.82-4.46,8.69-9.49,11.51-3.58,2-7.84,2.98-13.03,2.98Z"/>
        <path class="cls-3" d="M230.58,177.34c-1.03,0-1.87-.84-1.87-1.87v-19.37c0-.47,0-.95.01-1.42.02-1.05.03-2.04-.03-3.03-.07-.98-.02-1.93.02-2.84.03-.61.06-1.22.05-1.83-.08-5.17-.07-10.42-.07-15.49,0-2.44,0-4.89,0-7.33,0-.71.07-1.43.21-2.13.17-.82.91-2.79,4.25-3.37,1.88-.32,3.54-.08,4.94.74,1.91,1.11,2.33,2.64,2.34,3.74.02,1.64.02,3.27.01,4.91v1.83c0,.41.02,1.1-.45,1.81-.58.86-1.74,1.09-2.6.51-.74-.5-1.01-1.44-.7-2.24v-.07s0-1.84,0-1.84c0-1.62,0-3.23-.01-4.85,0-.14,0-.28-.48-.55-.64-.37-1.41-.46-2.43-.29-.84.14-1.18.4-1.23.47-.07.41-.12.87-.12,1.32,0,2.45,0,4.9,0,7.34,0,5.06-.01,10.29.07,15.43,0,.69-.02,1.38-.05,2.07-.04.84-.08,1.64-.03,2.41.08,1.14.06,2.25.04,3.34,0,.45-.01.91-.01,1.36v19.37c0,1.03-.84,1.87-1.87,1.87Z"/>
      </g>
      <g>
        <path class="cls-3" d="M502.31,176.54c-1.03,0-1.87-.84-1.87-1.87v-6c0-6.39,0-12.79,0-19.18,0-.92,0-2.29.91-3.6-.91-1.33-.91-2.69-.91-3.6v-3.84c0-4.89,0-6.63,0-7.17h0v-.14s0-.02,0-.04v-.04h0c0-.07,0-.14.02-.21-.02-.44-.02-.94-.02-1.5v-9.3c0-1.03.84-1.87,1.87-1.87s1.87.84,1.87,1.87c0,7.86,0,10.34,0,11.01h0s0,.06,0,.09v.12h0s0,.08,0,.11c.02.32.02.65.02.98v9.92c0,.78.03,1.17.24,1.46.95,1.32.95,2.95,0,4.27-.21.29-.25.69-.25,1.46,0,6.4,0,12.79,0,19.19v6c0,1.03-.84,1.87-1.87,1.87Z"/>
        <path class="cls-3" d="M538.71,176.45c-1.46,0-2.52-.89-2.97-1.27-3.33-2.79-6.77-5.57-10.1-8.26-1.53-1.23-3.06-2.47-4.58-3.71-1.67-1.36-3.34-2.73-5.01-4.1-4.51-3.69-9.18-7.51-13.85-11.17-.81-.64-.96-1.81-.32-2.63s1.81-.96,2.63-.32c4.69,3.68,9.38,7.51,13.91,11.22,1.67,1.36,3.33,2.73,5.01,4.09,1.52,1.24,3.04,2.47,4.57,3.7,3.34,2.7,6.8,5.49,10.15,8.3.39.33.54.38.58.39,1-.27,2.01.33,2.28,1.32s-.34,2.02-1.34,2.29c-.33.09-.65.13-.95.13Z"/>
        <path class="cls-3" d="M503.36,147.15c-.69,0-1.36-.39-1.68-1.05-.45-.93-.07-2.05.86-2.5.73-.36,1.36-1,1.99-1.69,3.54-3.85,7.19-7.72,10.71-11.46,2.94-3.12,5.87-6.23,8.78-9.37.95-1.02,2.27-2.25,4.13-2.64,3.13-.67,5.71.44,7.26,3.13,1.25,2.18.35,5.8-1.3,7.59-3.23,3.52-6.57,7.15-10.09,10.7-.73.73-1.91.74-2.65.01s-.74-1.91-.01-2.65c3.47-3.49,6.78-7.1,9.99-10.59.82-.89,1.05-2.74.81-3.2-.73-1.27-1.7-1.66-3.23-1.33-.67.14-1.29.59-2.17,1.53-2.92,3.15-5.86,6.27-8.8,9.39-3.52,3.73-7.16,7.6-10.68,11.43-.85.92-1.79,1.87-3.1,2.52-.27.13-.55.19-.82.19Z"/>
      </g>
    </g>
    <g id="submark_color" data-name="submark color">
      <circle class="cls-1" cx="132.03" cy="147.99" r="75"/>
      <g>
        <path class="cls-2" d="M111.69,165.96h-.13c-2.43,0-4.86,0-7.28,0h-3.23c-.83,0-1.49-.67-1.49-1.49s.67-1.49,1.49-1.49h3.22c2.43,0,4.86,0,7.3,0,4.16,0,7.41-.82,10.18-2.64,3.77-2.48,6.15-5.84,7.08-9.99,1.74-7.75-1.4-14.69-8.38-18.56-2.13-1.18-4.44-1.74-6.79-1.76-.53,0-1.05-.02-1.57-.04-.41-.02-.82-.03-1.22-.04-.83,0-1.49-.68-1.48-1.51,0-.83.68-1.47,1.51-1.48.44,0,.88.02,1.32.04.48.02.96.04,1.43.04h.1c2.86,0,5.6.72,8.15,2.13,8.09,4.48,11.86,12.84,9.85,21.83-1.1,4.93-3.91,8.91-8.35,11.83-3.21,2.11-7.04,3.13-11.7,3.13Z"/>
        <path class="cls-2" d="M100.66,201.47c-.83,0-1.49-.67-1.49-1.49v-25.2c0-.61,0-1.22.01-1.83.01-1.34.02-2.72-.03-4.06-.05-1.19-.01-2.37.02-3.51.02-.83.05-1.65.04-2.48-.06-6.7-.06-13.52-.05-20.1,0-3.19,0-6.38,0-9.57,0-.82.04-1.64.14-2.46.22-1.84,1.36-3.2,3.12-3.72,1.63-.49,3.1-.12,4.27,1.04,1,1,1.49,2.25,1.51,3.84.02,2.13.02,4.25.01,6.38v2.37s0,.13,0,.13c0,.36.01.86-.2,1.4-.3.77-1.17,1.15-1.94.85-.76-.3-1.14-1.15-.85-1.92,0-.06,0-.19,0-.3v-.17s0-2.37,0-2.37c0-2.12,0-4.23-.01-6.35,0-.79-.2-1.32-.63-1.75-.32-.32-.65-.48-1.3-.29-.61.18-.93.57-1.01,1.21-.08.7-.12,1.4-.12,2.1,0,3.19,0,6.39,0,9.58,0,6.58-.01,13.38.05,20.07,0,.87-.02,1.73-.04,2.59-.03,1.14-.06,2.22-.02,3.31.05,1.41.04,2.83.03,4.21,0,.6-.01,1.2-.01,1.8v25.2c0,.83-.67,1.49-1.49,1.49Z"/>
        <path class="cls-2" d="M139.04,165.95c-.83,0-1.49-.67-1.49-1.49v-3.85c0-4.27,0-8.54,0-12.82,0-.57,0-1.49.55-2.38-.55-.89-.55-1.81-.55-2.38,0-13.43,0-26.87,0-40.3v-6.72c0-.83.67-1.49,1.49-1.49s1.49.67,1.49,1.49v6.72c0,13.43,0,26.87,0,40.3,0,.45.02.68.11.82.69.97.69,2.16,0,3.13-.1.13-.11.38-.11.82,0,4.27,0,8.55,0,12.82v3.85c0,.83-.67,1.49-1.5,1.49Z"/>
        <path class="cls-2" d="M163.12,165.9c-1.05,0-1.8-.63-2.12-.9-2.21-1.85-4.49-3.7-6.7-5.48-1-.81-2.01-1.62-3.01-2.43-1.11-.9-2.21-1.81-3.32-2.71-2.99-2.44-6.08-4.97-9.16-7.39-.65-.51-.76-1.45-.25-2.1.51-.65,1.45-.76,2.1-.25,3.11,2.44,6.21,4.97,9.21,7.43,1.1.9,2.21,1.81,3.31,2.71,1,.81,2,1.62,3,2.43,2.22,1.79,4.52,3.65,6.75,5.52.12.1.2.16.24.18.77-.14,1.52.32,1.72,1.08.21.8-.26,1.62-1.06,1.83-.25.07-.48.09-.7.09Z"/>
        <path class="cls-2" d="M139.74,146.51c-.55,0-1.08-.31-1.34-.84-.36-.74-.06-1.64.68-2,.44-.22.84-.63,1.24-1.06,2.34-2.54,4.71-5.06,7.08-7.57,1.95-2.07,3.89-4.13,5.82-6.21.65-.7,1.57-1.55,2.86-1.83,2.18-.47,3.99.31,5.08,2.19.91,1.58.26,4.07-.89,5.33-2.04,2.22-4.34,4.73-6.68,7.09-.58.59-1.53.59-2.11,0-.59-.58-.59-1.53,0-2.11,2.3-2.32,4.58-4.81,6.6-7,.45-.49.61-1.54.49-1.83-.35-.6-.8-.97-1.85-.74-.38.08-.76.35-1.3.94-1.94,2.09-3.89,4.16-5.84,6.23-2.36,2.51-4.72,5.01-7.06,7.55-.55.6-1.22,1.28-2.13,1.72-.21.1-.44.15-.66.15Z"/>
      </g>
    </g>
  </g>
</svg>