<?xml version="1.0" encoding="UTF-8"?>
<svg id="Layer_1" data-name="Layer 1" xmlns="http://www.w3.org/2000/svg" viewBox="0 0 800 300">
  <defs>
    <style>
      .cls-1 {
        fill: #33c9c1;
      }

      .cls-2 {
        fill: #fff;
      }

      .cls-3 {
        fill: #121416;
      }
    </style>
  </defs>
  <g id="full_logo_tagline_color" data-name="full logo + tagline color">
    <g>
      <path class="cls-3" d="M251.72,226.41l-2.75-16.88-7.62,14.94h-.49l-7.67-14.97-2.77,16.91h-1.66l3.48-20.97h.46l8.41,16.36,8.35-16.36h.44l3.48,20.97h-1.66Z"/>
      <path class="cls-3" d="M256.28,208.16c0-.78.49-1.19,1.17-1.19.73,0,1.2.42,1.2,1.19,0,.72-.46,1.14-1.2,1.14-.68,0-1.17-.42-1.17-1.14ZM256.64,212.6h1.63v13.8h-1.63v-13.8Z"/>
      <path class="cls-3" d="M274.24,218.33v8.08h-1.63v-7.78c0-3.11-1.6-5.03-4.19-5.03s-4.54,2.17-4.54,5.5v7.3h-1.63v-13.8h1.55v3.28c.63-2,2.42-3.64,5.03-3.64,3.24,0,5.41,2.28,5.41,6.08Z"/>
      <path class="cls-3" d="M277.75,208.16c0-.78.49-1.19,1.17-1.19.73,0,1.2.42,1.2,1.19,0,.72-.46,1.14-1.2,1.14-.68,0-1.17-.42-1.17-1.14ZM278.1,212.6h1.63v13.8h-1.63v-13.8Z"/>
      <path class="cls-3" d="M305.06,218.33v8.08h-1.63v-7.78c0-3.11-1.33-5.03-3.89-5.03s-4.33,2.17-4.33,5.47v7.33h-1.63v-7.78c0-3.11-1.47-5.03-3.97-5.03s-4.27,2.17-4.27,5.47v7.33h-1.63v-13.8h1.55v3.28c.63-1.97,2.31-3.64,4.79-3.64s4.22,1.42,4.9,3.86c.6-2.08,2.31-3.86,5.01-3.86,3.1,0,5.12,2.28,5.12,6.08Z"/>
      <path class="cls-3" d="M321.06,224.96v1.31c-.25.19-.79.42-1.36.42-1.03,0-1.8-.58-1.8-1.97v-1.75c-.25.75-.65,1.44-1.22,2.03-1.06,1.08-2.64,1.81-4.43,1.81-2.45,0-4.19-1.42-4.19-3.67,0-1,.33-1.78.9-2.39.98-1.06,2.72-1.47,4.43-1.78,1.58-.31,3.16-.64,3.89-1.39.3-.33.49-.78.49-1.31,0-1.53-1.06-2.56-3.78-2.56-2.04,0-4,.72-5.28,1.5v-1.56c1.14-.67,3.21-1.42,5.31-1.42,3.67,0,5.28,1.58,5.28,4.14v7.78c0,.69.33,1.08.9,1.08.33,0,.65-.11.87-.28ZM317.82,219.8v-1.31c-.05.08-.11.17-.16.22-.73.75-2.26,1.14-3.54,1.36-1.69.31-3.05.64-3.78,1.44-.38.39-.6.89-.6,1.56,0,1.44,1.17,2.39,2.94,2.39,1.36,0,2.67-.5,3.62-1.47.98-1,1.52-2.47,1.52-4.19Z"/>
      <path class="cls-3" d="M323.26,224.49v-18.91h1.63v18.69c0,.69.3,1.06.95,1.06.35,0,.73-.06.98-.28v1.36c-.33.22-.84.39-1.36.39-1.31,0-2.2-.83-2.2-2.3Z"/>
      <path class="cls-3" d="M347.61,219.96h-11.05c.19,3.55,2.18,5.36,5.63,5.36,2.01,0,3.75-.61,4.84-1.36v1.5c-1.28.86-3.21,1.33-4.98,1.33-4.46,0-7.07-2.72-7.07-7.39,0-4.33,2.8-7.16,6.58-7.16s6.12,2.72,6.12,6.72c0,.33-.03.67-.08,1ZM336.56,218.6h9.6c-.08-3-1.61-4.97-4.62-4.97-2.72,0-4.71,1.81-4.98,4.97Z"/>
      <path class="cls-3" d="M362.19,209.69v2.92h4.19v1.47h-4.19v12.44c0,3.17-1.36,5.05-4.11,5.05-.76,0-1.44-.19-1.99-.5l.03-1.47c.52.31,1.09.47,1.77.47,1.93,0,2.69-1.25,2.69-3.55v-12.44h-7.24v13.27c0,3.17-1.36,5.05-4.11,5.05-.76,0-1.44-.19-1.99-.5l.03-1.47c.52.31,1.09.47,1.77.47,1.93,0,2.69-1.25,2.69-3.55v-13.27h-2.99v-1.47h2.99v-2.22c0-2.8,1.58-4.39,4.3-4.39.73,0,1.36.14,1.82.33v1.39c-.41-.17-1.01-.28-1.63-.28-1.93,0-2.88,1-2.88,2.97v2.19h7.24v-2.94c0-2.8,1.58-4.39,4.3-4.39.73,0,1.36.14,1.82.33v1.39c-.41-.17-1.01-.28-1.63-.28-1.93,0-2.88,1-2.88,2.97Z"/>
      <path class="cls-3" d="M366.81,219.52c0-4.22,3.16-7.28,7.05-7.28s7.05,3.08,7.05,7.28-3.1,7.28-7.05,7.28-7.05-3.05-7.05-7.28ZM379.33,219.52c0-3.44-2.34-5.8-5.47-5.8s-5.47,2.36-5.47,5.8,2.42,5.78,5.47,5.78,5.47-2.36,5.47-5.78Z"/>
      <path class="cls-3" d="M391.73,212.6v1.64c-.52-.31-1.28-.47-2.04-.47-2.42,0-4.22,1.64-4.22,4.69v7.94h-1.63v-13.8h1.55v3.08c.54-1.78,2.07-3.44,4.49-3.44.6,0,1.36.14,1.85.36Z"/>
      <path class="cls-3" d="M397.42,214.08v8.19c0,1.94.84,2.94,2.48,2.94.71,0,1.47-.19,1.96-.5v1.53c-.54.33-1.41.56-2.2.56-2.48,0-3.86-1.67-3.86-4.53v-8.19h-2.39v-1.47h2.39v-4.25h1.63v4.25h4.43v1.47h-4.43Z"/>
      <path class="cls-3" d="M405.53,225.66c0-.75.49-1.14,1.17-1.14s1.17.39,1.17,1.14-.46,1.14-1.17,1.14-1.17-.42-1.17-1.14Z"/>
      <path class="cls-3" d="M441.6,226.41l-2.75-16.88-7.62,14.94h-.49l-7.67-14.97-2.77,16.91h-1.66l3.48-20.97h.46l8.41,16.36,8.35-16.36h.44l3.48,20.97h-1.66Z"/>
      <path class="cls-3" d="M458.66,224.96v1.31c-.25.19-.79.42-1.36.42-1.03,0-1.8-.58-1.8-1.97v-1.75c-.25.75-.65,1.44-1.22,2.03-1.06,1.08-2.64,1.81-4.43,1.81-2.45,0-4.19-1.42-4.19-3.67,0-1,.33-1.78.9-2.39.98-1.06,2.72-1.47,4.43-1.78,1.58-.31,3.16-.64,3.89-1.39.3-.33.49-.78.49-1.31,0-1.53-1.06-2.56-3.78-2.56-2.04,0-4,.72-5.28,1.5v-1.56c1.14-.67,3.21-1.42,5.31-1.42,3.67,0,5.28,1.58,5.28,4.14v7.78c0,.69.33,1.08.9,1.08.33,0,.65-.11.87-.28ZM455.42,219.8v-1.31c-.05.08-.11.17-.16.22-.73.75-2.26,1.14-3.54,1.36-1.69.31-3.05.64-3.78,1.44-.38.39-.6.89-.6,1.56,0,1.44,1.17,2.39,2.94,2.39,1.36,0,2.67-.5,3.62-1.47.98-1,1.52-2.47,1.52-4.19Z"/>
      <path class="cls-3" d="M470.54,226.41l-4.54-6.03-4.49,6.03h-1.88l5.47-7.14-5.09-6.67h1.88l4.14,5.55,4.14-5.55h1.9l-5.14,6.67,5.5,7.14h-1.88Z"/>
      <path class="cls-3" d="M474.84,208.16c0-.78.49-1.19,1.17-1.19.73,0,1.2.42,1.2,1.19,0,.72-.46,1.14-1.2,1.14-.68,0-1.17-.42-1.17-1.14ZM475.19,212.6h1.63v13.8h-1.63v-13.8Z"/>
      <path class="cls-3" d="M502.16,218.33v8.08h-1.63v-7.78c0-3.11-1.33-5.03-3.89-5.03s-4.33,2.17-4.33,5.47v7.33h-1.63v-7.78c0-3.11-1.47-5.03-3.97-5.03s-4.27,2.17-4.27,5.47v7.33h-1.63v-13.8h1.55v3.28c.63-1.97,2.31-3.64,4.79-3.64s4.22,1.42,4.9,3.86c.6-2.08,2.31-3.86,5.01-3.86,3.1,0,5.12,2.28,5.12,6.08Z"/>
      <path class="cls-3" d="M505.61,220.6v-8h1.63v8c0,2.86,1.6,4.69,4.19,4.69s4.19-1.83,4.19-4.69v-8h1.63v8c0,3.89-2.29,6.19-5.82,6.19s-5.82-2.3-5.82-6.19Z"/>
      <path class="cls-3" d="M542.2,218.33v8.08h-1.63v-7.78c0-3.11-1.33-5.03-3.89-5.03s-4.33,2.17-4.33,5.47v7.33h-1.63v-7.78c0-3.11-1.47-5.03-3.97-5.03s-4.27,2.17-4.27,5.47v7.33h-1.63v-13.8h1.55v3.28c.63-1.97,2.31-3.64,4.79-3.64s4.22,1.42,4.9,3.86c.6-2.08,2.31-3.86,5.01-3.86,3.1,0,5.12,2.28,5.12,6.08Z"/>
      <path class="cls-3" d="M551.42,219.52c0-4.22,3.16-7.28,7.05-7.28s7.05,3.08,7.05,7.28-3.1,7.28-7.05,7.28-7.05-3.05-7.05-7.28ZM563.94,219.52c0-3.44-2.34-5.8-5.47-5.8s-5.47,2.36-5.47,5.8,2.42,5.78,5.47,5.78,5.47-2.36,5.47-5.78Z"/>
      <path class="cls-3" d="M576.34,212.6v1.64c-.52-.31-1.28-.47-2.04-.47-2.42,0-4.22,1.64-4.22,4.69v7.94h-1.63v-13.8h1.55v3.08c.54-1.78,2.07-3.44,4.49-3.44.6,0,1.36.14,1.85.36Z"/>
      <path class="cls-3" d="M590.62,212.6v13.08c0,4.11-2.31,6.72-6.99,6.72-2.23,0-4.05-.86-5.09-1.72v-1.58c1.12.97,2.88,1.83,5.06,1.83,3.84,0,5.47-2.22,5.47-5.22v-2.69c-.98,2.39-2.99,3.78-5.47,3.78-3.75,0-6.58-2.94-6.58-7.25s2.83-7.3,6.58-7.3c2.48,0,4.49,1.36,5.47,3.78v-3.42h1.55ZM589.21,219.52c0-3.44-2.34-5.8-5.33-5.8s-5.28,2.25-5.28,5.83,2.26,5.75,5.28,5.75,5.33-2.33,5.33-5.78Z"/>
      <path class="cls-3" d="M606.62,224.96v1.31c-.25.19-.79.42-1.36.42-1.03,0-1.8-.58-1.8-1.97v-1.75c-.25.75-.65,1.44-1.22,2.03-1.06,1.08-2.64,1.81-4.43,1.81-2.45,0-4.19-1.42-4.19-3.67,0-1,.33-1.78.9-2.39.98-1.06,2.72-1.47,4.43-1.78,1.58-.31,3.16-.64,3.89-1.39.3-.33.49-.78.49-1.31,0-1.53-1.06-2.56-3.78-2.56-2.04,0-4,.72-5.28,1.5v-1.56c1.14-.67,3.21-1.42,5.31-1.42,3.67,0,5.28,1.58,5.28,4.14v7.78c0,.69.33,1.08.9,1.08.33,0,.65-.11.87-.28ZM603.38,219.8v-1.31c-.05.08-.11.17-.16.22-.73.75-2.26,1.14-3.54,1.36-1.69.31-3.05.64-3.78,1.44-.38.39-.6.89-.6,1.56,0,1.44,1.17,2.39,2.94,2.39,1.36,0,2.67-.5,3.62-1.47.98-1,1.52-2.47,1.52-4.19Z"/>
      <path class="cls-3" d="M621.09,218.33v8.08h-1.63v-7.78c0-3.11-1.6-5.03-4.19-5.03s-4.54,2.17-4.54,5.5v7.3h-1.63v-13.8h1.55v3.28c.63-2,2.42-3.64,5.03-3.64,3.24,0,5.41,2.28,5.41,6.08Z"/>
      <path class="cls-3" d="M624.6,208.16c0-.78.49-1.19,1.17-1.19.73,0,1.2.42,1.2,1.19,0,.72-.46,1.14-1.2,1.14-.68,0-1.17-.42-1.17-1.14ZM624.95,212.6h1.63v13.8h-1.63v-13.8Z"/>
      <path class="cls-3" d="M640.08,224.94v1.47h-10.88v-.28l8.27-12.05h-7.62v-1.47h10.12v.25l-8.19,12.08h8.3Z"/>
      <path class="cls-3" d="M654.82,224.96v1.31c-.25.19-.79.42-1.36.42-1.03,0-1.8-.58-1.8-1.97v-1.75c-.25.75-.65,1.44-1.22,2.03-1.06,1.08-2.64,1.81-4.43,1.81-2.45,0-4.19-1.42-4.19-3.67,0-1,.33-1.78.9-2.39.98-1.06,2.72-1.47,4.43-1.78,1.58-.31,3.16-.64,3.89-1.39.3-.33.49-.78.49-1.31,0-1.53-1.06-2.56-3.78-2.56-2.04,0-4,.72-5.28,1.5v-1.56c1.14-.67,3.21-1.42,5.31-1.42,3.67,0,5.28,1.58,5.28,4.14v7.78c0,.69.33,1.08.9,1.08.33,0,.65-.11.87-.28ZM651.59,219.8v-1.31c-.05.08-.11.17-.16.22-.73.75-2.26,1.14-3.54,1.36-1.69.31-3.05.64-3.78,1.44-.38.39-.6.89-.6,1.56,0,1.44,1.17,2.39,2.94,2.39,1.36,0,2.67-.5,3.62-1.47.98-1,1.52-2.47,1.52-4.19Z"/>
      <path class="cls-3" d="M659.29,214.08v8.19c0,1.94.84,2.94,2.48,2.94.71,0,1.47-.19,1.96-.5v1.53c-.54.33-1.41.56-2.2.56-2.48,0-3.86-1.67-3.86-4.53v-8.19h-2.39v-1.47h2.39v-4.25h1.63v4.25h4.43v1.47h-4.43Z"/>
      <path class="cls-3" d="M665.95,208.16c0-.78.49-1.19,1.17-1.19.73,0,1.2.42,1.2,1.19,0,.72-.46,1.14-1.2,1.14-.68,0-1.17-.42-1.17-1.14ZM666.3,212.6h1.63v13.8h-1.63v-13.8Z"/>
      <path class="cls-3" d="M671.04,219.52c0-4.22,3.16-7.28,7.05-7.28s7.05,3.08,7.05,7.28-3.1,7.28-7.05,7.28-7.05-3.05-7.05-7.28ZM683.55,219.52c0-3.44-2.34-5.8-5.47-5.8s-5.47,2.36-5.47,5.8,2.42,5.78,5.47,5.78,5.47-2.36,5.47-5.78Z"/>
      <path class="cls-3" d="M700.07,218.33v8.08h-1.63v-7.78c0-3.11-1.6-5.03-4.19-5.03s-4.54,2.17-4.54,5.5v7.3h-1.63v-13.8h1.55v3.28c.63-2,2.42-3.64,5.03-3.64,3.24,0,5.41,2.28,5.41,6.08Z"/>
      <path class="cls-3" d="M705.02,225.66c0-.75.49-1.14,1.17-1.14s1.17.39,1.17,1.14-.46,1.14-1.17,1.14-1.17-.42-1.17-1.14Z"/>
    </g>
    <g>
      <path class="cls-3" d="M297.06,137.97v4.59c-1.48-.86-3.65-1.32-5.83-1.32-6.92,0-12.05,4.59-12.05,13.14v22.23h-4.66v-38.63h4.43v8.63c1.56-4.97,5.91-9.64,12.83-9.64,1.71,0,3.89.39,5.29,1.01Z"/>
      <path class="cls-3" d="M299,157.32c0-11.81,9.02-20.36,20.13-20.36s20.13,8.63,20.13,20.36-8.86,20.37-20.13,20.37-20.13-8.55-20.13-20.37ZM334.76,157.32c0-9.64-6.68-16.24-15.62-16.24s-15.62,6.61-15.62,16.24,6.92,16.17,15.62,16.17,15.62-6.61,15.62-16.17Z"/>
      <path class="cls-3" d="M383.58,118.3v58.3h-4.43v-9.41c-2.72,6.69-8.39,10.49-15.39,10.49-10.57,0-18.57-8.24-18.57-20.29s8-20.44,18.57-20.44c6.76,0,12.36,3.58,15.16,9.95v-28.6h4.67ZM379.54,157.32c0-9.64-6.53-16.24-15-16.24s-14.85,6.3-14.85,16.32,6.37,16.09,14.85,16.09,15-6.53,15-16.17Z"/>
      <path class="cls-3" d="M393.54,160.35v-22.39h4.67v22.39c0,8.01,4.58,13.14,11.97,13.14s11.97-5.13,11.97-13.14v-22.39h4.67v22.39c0,10.88-6.53,17.33-16.63,17.33s-16.63-6.45-16.63-17.33Z"/>
      <path class="cls-3" d="M434.59,157.32c0-11.74,8.55-20.36,20.36-20.36,3.42,0,6.61.78,9.1,2.25l-.08,4.12c-2.18-1.32-5.13-2.25-8.78-2.25-9.33,0-16.09,6.76-16.09,16.24s6.84,16.17,16.09,16.17c3.65,0,6.61-.93,8.78-2.25l.08,4.12c-2.49,1.48-5.67,2.33-9.1,2.33-11.89,0-20.36-8.63-20.36-20.37Z"/>
      <path class="cls-3" d="M481.62,142.08v22.93c0,5.44,2.41,8.24,7.07,8.24,2.02,0,4.2-.54,5.6-1.4v4.28c-1.56.93-4.04,1.56-6.3,1.56-7.07,0-11.04-4.66-11.04-12.67v-22.93h-6.84v-4.12h6.84v-11.89h4.66v11.89h12.67v4.12h-12.67Z"/>
      <path class="cls-3" d="M579.81,158.56h-31.56c.54,9.95,6.22,15,16.09,15,5.75,0,10.73-1.71,13.84-3.81v4.2c-3.65,2.41-9.17,3.73-14.22,3.73-12.75,0-20.21-7.62-20.21-20.68,0-12.13,8.01-20.05,18.81-20.05s17.49,7.62,17.49,18.81c0,.93-.08,1.86-.23,2.8ZM548.25,154.75h27.44c-.23-8.39-4.58-13.91-13.21-13.91-7.77,0-13.45,5.05-14.22,13.91Z"/>
      <path class="cls-3" d="M621.79,158.56h-31.56c.54,9.95,6.22,15,16.09,15,5.75,0,10.73-1.71,13.83-3.81v4.2c-3.65,2.41-9.17,3.73-14.22,3.73-12.75,0-20.21-7.62-20.21-20.68,0-12.13,8-20.05,18.81-20.05s17.49,7.62,17.49,18.81c0,.93-.08,1.86-.23,2.8ZM590.23,154.75h27.44c-.23-8.39-4.59-13.91-13.22-13.91-7.77,0-13.45,5.05-14.22,13.91Z"/>
      <path class="cls-3" d="M669.06,157.16c0,11.74-8.08,20.52-18.89,20.52-6.84,0-12.44-3.5-15.31-9.87v24.72h-4.66v-54.56h4.43v9.25c2.8-6.53,8.47-10.26,15.55-10.26,10.88,0,18.89,8.63,18.89,20.21ZM664.55,157.16c0-9.41-6.45-16.17-15.16-16.17s-15.16,6.68-15.16,16.24,6.53,16.25,15.16,16.25,15.16-6.76,15.16-16.32Z"/>
      <path class="cls-3" d="M711.04,158.56h-31.56c.54,9.95,6.22,15,16.09,15,5.75,0,10.73-1.71,13.83-3.81v4.2c-3.65,2.41-9.17,3.73-14.22,3.73-12.75,0-20.21-7.62-20.21-20.68,0-12.13,8-20.05,18.81-20.05s17.49,7.62,17.49,18.81c0,.93-.08,1.86-.23,2.8ZM679.48,154.75h27.44c-.23-8.39-4.59-13.91-13.22-13.91-7.77,0-13.45,5.05-14.22,13.91Z"/>
      <path class="cls-3" d="M741.99,137.97v4.59c-1.48-.86-3.65-1.32-5.83-1.32-6.92,0-12.05,4.59-12.05,13.14v22.23h-4.66v-38.63h4.43v8.63c1.56-4.97,5.91-9.64,12.83-9.64,1.71,0,3.89.39,5.29,1.01Z"/>
    </g>
    <g>
      <path class="cls-3" d="M243.95,158.45h-.14c-2.71,0-5.42,0-8.13,0h-3.56c-1.03,0-1.87-.84-1.87-1.87s.84-1.87,1.87-1.87h3.56c2.72,0,5.43,0,8.15,0,4.62.03,8.25-.78,11.33-2.5,4.11-2.3,6.7-5.39,7.69-9.19,1.85-7.06-1.56-13.41-9.14-16.99-2.01-.95-4.45-1.48-7.68-1.67-.95-.06-.98-.06-1.71-.06h-.26c-1.03,0-1.87-.85-1.86-1.89,0-1.03.84-1.86,1.87-1.86h.26c.81,0,.84,0,1.91.07,3.73.22,6.6.86,9.06,2.02,9.2,4.34,13.47,12.51,11.16,21.32-1.27,4.82-4.46,8.69-9.48,11.51-3.58,2-7.84,2.98-13.03,2.98Z"/>
      <path class="cls-3" d="M230.58,177.34c-1.03,0-1.87-.84-1.87-1.87v-19.37c0-.47,0-.95.02-1.42.02-1.05.03-2.04-.03-3.03-.07-.98-.02-1.93.02-2.84.03-.61.06-1.22.05-1.83-.08-5.15-.07-10.38-.07-15.44,0-2.46,0-4.92,0-7.38,0-.71.07-1.43.21-2.13.17-.82.91-2.79,4.25-3.37,1.88-.32,3.54-.08,4.94.74,1.91,1.11,2.33,2.64,2.34,3.74.02,1.64.02,3.28.01,4.91v1.83c0,.41.02,1.11-.45,1.81-.58.86-1.74,1.08-2.6.51-.74-.5-1.01-1.44-.69-2.24v-.07s0-1.84,0-1.84c0-1.62,0-3.23-.01-4.85,0-.14,0-.28-.48-.55-.64-.37-1.41-.46-2.43-.29-.84.14-1.18.4-1.23.47-.07.4-.12.86-.12,1.32,0,2.47,0,4.93,0,7.4,0,5.04-.01,10.25.07,15.37.01.69-.02,1.38-.05,2.07-.04.84-.08,1.64-.03,2.41.08,1.14.06,2.25.04,3.33,0,.45-.01.91-.01,1.36v19.37c0,1.03-.84,1.87-1.87,1.87Z"/>
    </g>
    <g>
      <path class="cls-3" d="M502.31,176.54c-1.03,0-1.87-.84-1.87-1.87v-5.67c0-6.5,0-13.01,0-19.51,0-1.16.07-2.39.91-3.6-.91-1.33-.91-2.69-.91-3.6,0-7.88,0-10.35,0-11.02h0v-.14s0-.03,0-.04v-.03h0c0-.07,0-.14.02-.21-.02-.44-.02-.95-.02-1.5v-9.3c0-1.03.84-1.87,1.87-1.87s1.87.84,1.87,1.87c0,7.87,0,10.34,0,11.01h0s0,.06,0,.09v.12h0c0,.06-.01.12-.02.18.03.46.03.97.03,1.54v9.3c0,.78.03,1.17.24,1.46.95,1.32.95,2.95,0,4.27-.21.29-.25.69-.24,1.46,0,6.51,0,13.01,0,19.52v5.67c0,1.03-.84,1.87-1.87,1.87Z"/>
      <path class="cls-3" d="M538.71,176.45c-1.46,0-2.52-.89-2.97-1.27-3.32-2.79-6.76-5.56-10.08-8.24-1.53-1.24-3.06-2.47-4.59-3.72-1.67-1.36-3.34-2.73-5.01-4.09-4.52-3.7-9.19-7.52-13.85-11.17-.81-.64-.96-1.81-.32-2.63.64-.81,1.81-.96,2.63-.32,4.7,3.68,9.38,7.51,13.91,11.22,1.67,1.36,3.33,2.73,5,4.08,1.52,1.24,3.05,2.48,4.58,3.71,3.34,2.69,6.79,5.48,10.14,8.29.39.33.53.38.58.39,1-.27,2.01.33,2.28,1.32.27,1-.34,2.02-1.34,2.29-.33.09-.65.13-.95.13Z"/>
      <path class="cls-3" d="M503.36,147.15c-.69,0-1.36-.39-1.68-1.05-.45-.93-.07-2.05.86-2.5.73-.36,1.36-1,1.99-1.69,3.53-3.84,7.17-7.7,10.68-11.43,2.95-3.13,5.89-6.25,8.81-9.4,1.01-1.09,2.29-2.25,4.13-2.64,3.13-.67,5.71.44,7.26,3.13,1.25,2.17.35,5.8-1.3,7.59-3.08,3.35-6.56,7.15-10.09,10.7-.73.73-1.91.74-2.65,0-.73-.73-.74-1.91,0-2.65,3.47-3.5,6.79-7.11,9.99-10.59.82-.89,1.05-2.74.81-3.19-.73-1.27-1.69-1.67-3.23-1.34-.66.14-1.29.59-2.17,1.53-2.93,3.16-5.88,6.29-8.83,9.42-3.51,3.72-7.14,7.57-10.65,11.4-.85.92-1.78,1.87-3.1,2.52-.27.13-.55.19-.82.19Z"/>
    </g>
    <g id="submark_color" data-name="submark color">
      <circle class="cls-1" cx="132.03" cy="147.99" r="75"/>
      <g>
        <path class="cls-2" d="M111.69,165.96h-.13c-2.43-.01-4.85,0-7.28,0h-3.23c-.83,0-1.49-.67-1.49-1.49s.67-1.49,1.49-1.49h3.22c2.43,0,4.87,0,7.3,0,.04,0,.08,0,.12,0,4.12,0,7.31-.84,10.06-2.64,3.77-2.48,6.15-5.84,7.08-9.99,1.73-7.75-1.4-14.69-8.38-18.56-2.11-1.17-4.36-1.76-6.7-1.76-.06,0-.12,0-.18,0-.49,0-.98-.02-1.47-.04-.41-.02-.82-.03-1.22-.04-.83,0-1.49-.68-1.48-1.51,0-.82.67-1.48,1.49-1.48h.01c.44,0,.88.02,1.32.04.48.02.96.05,1.43.04,2.94,0,5.67.7,8.25,2.13,8.09,4.48,11.86,12.84,9.85,21.83-1.1,4.93-3.91,8.92-8.35,11.83-3.21,2.11-7.04,3.13-11.7,3.13Z"/>
        <path class="cls-2" d="M100.66,201.47h0c-.83,0-1.49-.67-1.49-1.5v-25.19c0-.61,0-1.22.01-1.83.01-1.34.03-2.72-.03-4.06-.05-1.19-.01-2.37.02-3.51.02-.83.05-1.66.04-2.49-.06-6.69-.06-13.48-.05-20.06,0-3.2,0-6.41,0-9.61,0-.82.05-1.65.14-2.46.22-1.84,1.36-3.2,3.12-3.72,1.63-.48,3.1-.12,4.27,1.04,1,1,1.49,2.25,1.51,3.84.02,2.14.01,4.27.01,6.41v2.33s0,.13,0,.13c0,.36.01.86-.2,1.4-.3.77-1.17,1.15-1.94.85-.76-.3-1.14-1.15-.85-1.92,0-.06,0-.19,0-.3v-.17s0-2.34,0-2.34c0-2.13,0-4.25-.01-6.38,0-.79-.19-1.31-.63-1.75-.32-.32-.65-.48-1.31-.29-.61.18-.93.57-1.01,1.21-.08.69-.12,1.4-.12,2.1,0,3.21,0,6.41,0,9.62,0,6.56-.01,13.35.05,20.03,0,.87-.02,1.73-.04,2.6-.03,1.14-.06,2.22-.02,3.31.05,1.41.04,2.83.03,4.21,0,.6-.01,1.2-.01,1.8v25.2c0,.82-.67,1.49-1.49,1.49Z"/>
        <path class="cls-2" d="M139.04,165.95c-.83,0-1.49-.67-1.49-1.49v-3.7c0-4.32,0-8.64,0-12.96,0-.57,0-1.49.55-2.38-.55-.89-.55-1.81-.55-2.38,0-13.58,0-27.17,0-40.75v-6.27c0-.83.67-1.49,1.49-1.49s1.49.67,1.49,1.49v6.27c0,13.58,0,27.17,0,40.75,0,.44.02.68.11.82.69.96.69,2.16,0,3.12-.09.12-.11.32-.11.82,0,4.32,0,8.64,0,12.96v3.7c0,.83-.67,1.49-1.49,1.49Z"/>
        <path class="cls-2" d="M163.13,165.9c-1.05,0-1.8-.63-2.12-.9-2.2-1.84-4.47-3.68-6.67-5.45-1.01-.82-2.03-1.64-3.04-2.46-1.1-.9-2.2-1.8-3.3-2.7-2.99-2.45-6.09-4.98-9.18-7.4-.65-.51-.76-1.45-.25-2.1.51-.65,1.45-.76,2.1-.25,3.11,2.44,6.22,4.98,9.23,7.44,1.1.9,2.19,1.8,3.29,2.69,1.01.82,2.02,1.64,3.03,2.45,2.21,1.78,4.49,3.63,6.71,5.49.12.1.2.16.24.18.77-.14,1.52.32,1.72,1.08.21.8-.26,1.62-1.06,1.83-.25.07-.48.09-.7.09Z"/>
        <path class="cls-2" d="M139.74,146.51c-.55,0-1.08-.31-1.34-.84-.36-.74-.06-1.64.69-2,.45-.22.84-.63,1.24-1.06,2.34-2.55,4.71-5.06,7.08-7.58,1.94-2.06,3.89-4.13,5.82-6.21.65-.7,1.57-1.55,2.86-1.83,2.19-.47,3.99.31,5.08,2.19.91,1.58.26,4.07-.89,5.32-2.14,2.33-4.36,4.74-6.68,7.09-.58.59-1.53.59-2.11,0-.59-.58-.59-1.53,0-2.11,2.28-2.3,4.48-4.69,6.6-7,.45-.49.61-1.54.49-1.83-.35-.6-.8-.97-1.85-.74-.38.08-.76.35-1.3.94-1.93,2.09-3.88,4.16-5.83,6.23-2.36,2.51-4.73,5.02-7.06,7.55-.55.6-1.21,1.28-2.13,1.72-.21.1-.44.15-.66.15Z"/>
      </g>
    </g>
  </g>
</svg>