<?xml version="1.0" encoding="UTF-8"?>
<svg id="Layer_1" data-name="Layer 1" xmlns="http://www.w3.org/2000/svg" viewBox="0 0 300 297.99">
  <defs>
    <style>
      .cls-1 {
        fill: #33c9c1;
      }

      .cls-2 {
        fill: none;
        stroke: #fff;
        stroke-linecap: round;
        stroke-linejoin: round;
        stroke-width: 4.98px;
      }
    </style>
  </defs>
  <g id="submark_color" data-name="submark color">
    <circle class="cls-1" cx="150" cy="148.99" r="125"/>
    <g>
      <path class="cls-2" d="M98.38,176.44c5.84,0,11.68-.02,17.52,0,6.55.03,12.79-1.16,18.34-4.81,6.64-4.37,11.12-10.42,12.86-18.18,3.11-13.9-2.61-26.69-15.2-33.66-3.8-2.11-8.05-3.27-12.53-3.24-1.54,0-3.08-.12-4.63-.13"/>
      <path class="cls-2" d="M107.63,138.41c.21-.54.16-1.1.16-1.65,0-4.85.03-9.7-.01-14.55-.02-1.74-.45-3.33-1.78-4.65-1.38-1.38-2.95-1.61-4.65-1.11-1.99.59-3.2,2.07-3.44,4.11-.15,1.25-.22,2.52-.22,3.8.03,16.48-.07,32.96.09,49.43.03,3.31-.23,6.61-.1,9.92.13,3.3.03,6.61.03,9.92v29.59c0,3.31,0,6.61,0,9.92,0,.83,0,1.65,0,2.48"/>
      <path class="cls-2" d="M161.69,62.36c0,26.12,0,52.24,0,78.37,0,1,.04,1.95.66,2.82.53.74.53,1.56,0,2.3-.62.86-.66,1.82-.66,2.82.01,9.26,0,18.52,0,27.78"/>
      <path class="cls-2" d="M162.84,145.36c7.03,5.51,13.9,11.22,20.83,16.86,5.41,4.4,10.87,8.73,16.21,13.21.66.56,1.46,1.11,2.46.85"/>
      <path class="cls-2" d="M184.17,136.59c3.79-3.82,7.43-7.78,11.07-11.74,1.4-1.53,1.97-4.54,1.16-5.95-1.24-2.15-3.17-3.02-5.78-2.46-1.42.31-2.5,1.26-3.47,2.3-7.13,7.69-14.4,15.25-21.5,22.97-.83.9-1.69,1.77-2.81,2.32"/>
    </g>
  </g>
</svg>