<?xml version="1.0" encoding="UTF-8"?>
<svg id="Layer_1" data-name="Layer 1" xmlns="http://www.w3.org/2000/svg" viewBox="0 0 800 300">
  <defs>
    <style>
      .cls-1 {
        fill: #fff;
      }
    </style>
  </defs>
  <g id="wordmark_white">
    <g>
      <path class="cls-1" d="M210.8,137.97v4.59c-1.48-.86-3.65-1.32-5.83-1.32-6.92,0-12.05,4.59-12.05,13.14v22.23h-4.66v-38.63h4.43v8.63c1.56-4.97,5.91-9.64,12.83-9.64,1.71,0,3.89.39,5.29,1.01Z"/>
      <path class="cls-1" d="M212.75,157.32c0-11.81,9.02-20.36,20.13-20.36s20.13,8.63,20.13,20.36-8.86,20.37-20.13,20.37-20.13-8.55-20.13-20.37ZM248.5,157.32c0-9.64-6.68-16.24-15.62-16.24s-15.62,6.61-15.62,16.24,6.92,16.17,15.62,16.17,15.62-6.61,15.62-16.17Z"/>
      <path class="cls-1" d="M297.32,118.3v58.3h-4.43v-9.41c-2.72,6.69-8.39,10.49-15.39,10.49-10.57,0-18.57-8.24-18.57-20.29s8-20.44,18.57-20.44c6.76,0,12.36,3.58,15.16,9.95v-28.6h4.67ZM293.28,157.32c0-9.64-6.53-16.24-15-16.24s-14.85,6.3-14.85,16.32,6.37,16.09,14.85,16.09,15-6.53,15-16.17Z"/>
      <path class="cls-1" d="M307.28,160.35v-22.39h4.67v22.39c0,8.01,4.58,13.14,11.97,13.14s11.97-5.13,11.97-13.14v-22.39h4.67v22.39c0,10.88-6.53,17.33-16.63,17.33s-16.63-6.45-16.63-17.33Z"/>
      <path class="cls-1" d="M348.33,157.32c0-11.74,8.55-20.36,20.36-20.36,3.42,0,6.61.78,9.1,2.25l-.08,4.12c-2.18-1.32-5.13-2.25-8.78-2.25-9.33,0-16.09,6.76-16.09,16.24s6.84,16.17,16.09,16.17c3.65,0,6.61-.93,8.78-2.25l.08,4.12c-2.49,1.48-5.67,2.33-9.1,2.33-11.89,0-20.36-8.63-20.36-20.37Z"/>
      <path class="cls-1" d="M395.36,142.08v22.93c0,5.44,2.41,8.24,7.07,8.24,2.02,0,4.2-.54,5.6-1.4v4.28c-1.56.93-4.04,1.56-6.3,1.56-7.07,0-11.04-4.66-11.04-12.67v-22.93h-6.84v-4.12h6.84v-11.89h4.66v11.89h12.67v4.12h-12.67Z"/>
      <path class="cls-1" d="M493.55,158.56h-31.56c.54,9.95,6.22,15,16.09,15,5.75,0,10.73-1.71,13.84-3.81v4.2c-3.65,2.41-9.17,3.73-14.22,3.73-12.75,0-20.21-7.62-20.21-20.68,0-12.13,8.01-20.05,18.81-20.05s17.49,7.62,17.49,18.81c0,.93-.08,1.86-.23,2.8ZM461.99,154.75h27.44c-.23-8.39-4.58-13.91-13.21-13.91-7.77,0-13.45,5.05-14.22,13.91Z"/>
      <path class="cls-1" d="M535.53,158.56h-31.56c.54,9.95,6.22,15,16.09,15,5.75,0,10.73-1.71,13.83-3.81v4.2c-3.65,2.41-9.17,3.73-14.22,3.73-12.75,0-20.21-7.62-20.21-20.68,0-12.13,8-20.05,18.81-20.05s17.49,7.62,17.49,18.81c0,.93-.08,1.86-.23,2.8ZM503.97,154.75h27.44c-.23-8.39-4.59-13.91-13.22-13.91-7.77,0-13.45,5.05-14.22,13.91Z"/>
      <path class="cls-1" d="M582.8,157.16c0,11.74-8.08,20.52-18.89,20.52-6.84,0-12.44-3.5-15.31-9.87v24.72h-4.66v-54.56h4.43v9.25c2.8-6.53,8.47-10.26,15.55-10.26,10.88,0,18.89,8.63,18.89,20.21ZM578.29,157.16c0-9.41-6.45-16.17-15.16-16.17s-15.16,6.68-15.16,16.24,6.53,16.25,15.16,16.25,15.16-6.76,15.16-16.32Z"/>
      <path class="cls-1" d="M624.78,158.56h-31.56c.54,9.95,6.22,15,16.09,15,5.75,0,10.73-1.71,13.83-3.81v4.2c-3.65,2.41-9.17,3.73-14.22,3.73-12.75,0-20.21-7.62-20.21-20.68,0-12.13,8-20.05,18.81-20.05s17.49,7.62,17.49,18.81c0,.93-.08,1.86-.23,2.8ZM593.22,154.75h27.44c-.23-8.39-4.59-13.91-13.22-13.91-7.77,0-13.45,5.05-14.22,13.91Z"/>
      <path class="cls-1" d="M655.73,137.97v4.59c-1.48-.86-3.65-1.32-5.83-1.32-6.92,0-12.05,4.59-12.05,13.14v22.23h-4.66v-38.63h4.43v8.63c1.56-4.97,5.91-9.64,12.83-9.64,1.71,0,3.89.39,5.29,1.01Z"/>
    </g>
    <g>
      <path class="cls-1" d="M157.69,158.45h-.14c-2.71,0-5.41,0-8.12,0h-3.58c-1.03,0-1.87-.84-1.87-1.87s.84-1.87,1.87-1.87h3.58c2.71,0,5.42,0,8.13,0,4.65.02,8.26-.78,11.33-2.5,4.11-2.3,6.7-5.39,7.69-9.19,1.85-7.06-1.56-13.41-9.14-16.99-2.01-.95-4.45-1.48-7.68-1.67-.95-.06-.98-.06-1.69-.06h-.27c-1.03,0-1.87-.85-1.86-1.89,0-1.03.84-1.86,1.87-1.86h.28c.8,0,.83,0,1.89.07,3.73.22,6.6.86,9.06,2.02,9.2,4.34,13.48,12.51,11.16,21.32-1.27,4.82-4.46,8.69-9.49,11.51-3.58,2-7.84,2.98-13.03,2.98Z"/>
      <path class="cls-1" d="M144.32,177.34h0c-1.03,0-1.87-.84-1.87-1.88v-19.36c0-.48,0-.95.02-1.43.02-1.05.03-2.04-.03-3.02-.07-.98-.02-1.93.02-2.84.03-.61.06-1.22.05-1.83-.08-5.17-.07-10.42-.07-15.49,0-2.44,0-4.89,0-7.33,0-.71.07-1.43.21-2.13.17-.82.91-2.79,4.25-3.37,1.87-.33,3.54-.08,4.94.74,1.91,1.11,2.33,2.64,2.35,3.74.02,1.64.02,3.27.01,4.91v1.83c0,.41.02,1.1-.45,1.81-.58.86-1.74,1.09-2.6.51-.74-.5-1.01-1.44-.7-2.24v-.07s0-1.83,0-1.83c0-1.62,0-3.23-.01-4.85,0-.14,0-.28-.48-.55-.64-.37-1.41-.46-2.43-.28-.84.14-1.18.4-1.23.47-.07.41-.12.87-.12,1.32,0,2.45,0,4.9,0,7.34,0,5.06-.01,10.29.07,15.43,0,.69-.02,1.38-.05,2.07-.04.84-.08,1.64-.03,2.41.08,1.13.06,2.25.04,3.33,0,.46-.01.91-.01,1.37v19.37c0,1.03-.84,1.87-1.87,1.87Z"/>
    </g>
    <g>
      <path class="cls-1" d="M416.05,176.54c-1.03,0-1.87-.84-1.87-1.87v-6c0-6.4,0-12.79,0-19.19,0-.92,0-2.29.91-3.6-.91-1.33-.91-2.69-.91-3.6v-3.84c0-4.89,0-6.63,0-7.17h0v-.14s0-.02,0-.04v-.04h0c0-.07,0-.14.02-.21-.02-.44-.02-.94-.02-1.5v-9.3c0-1.03.84-1.87,1.87-1.87s1.87.84,1.87,1.87c0,7.86,0,10.34,0,11.01h0s0,.06,0,.09v.12h0s0,.08,0,.11c.02.32.02.65.02.98v9.93c0,.77.03,1.17.24,1.46.95,1.32.95,2.95,0,4.27-.21.29-.25.69-.24,1.46,0,6.4,0,12.79,0,19.19v6c0,1.03-.84,1.87-1.87,1.87Z"/>
      <path class="cls-1" d="M452.45,176.45c-1.46,0-2.52-.89-2.97-1.27-3.32-2.79-6.76-5.56-10.09-8.25-1.53-1.24-3.06-2.47-4.59-3.71-1.67-1.36-3.33-2.72-4.99-4.08-4.52-3.7-9.2-7.53-13.87-11.19-.81-.64-.96-1.81-.32-2.63.64-.81,1.82-.96,2.63-.32,4.7,3.68,9.39,7.52,13.93,11.24,1.66,1.36,3.32,2.72,4.98,4.07,1.52,1.24,3.05,2.47,4.58,3.71,3.34,2.7,6.79,5.48,10.14,8.29.39.33.54.38.58.39,1-.26,2.01.33,2.28,1.33s-.34,2.02-1.34,2.29c-.33.09-.65.13-.95.13Z"/>
      <path class="cls-1" d="M417.1,147.16c-.69,0-1.36-.39-1.68-1.05-.45-.93-.07-2.05.86-2.5.73-.36,1.36-1,1.99-1.69,3.54-3.85,7.18-7.71,10.71-11.45,2.94-3.12,5.88-6.24,8.79-9.38.95-1.02,2.27-2.25,4.13-2.64,3.13-.67,5.71.44,7.26,3.13,1.25,2.18.35,5.8-1.3,7.59-3.24,3.53-6.59,7.17-10.09,10.7-.73.73-1.91.74-2.65.01s-.74-1.91-.01-2.65c3.45-3.48,6.77-7.09,9.99-10.59.82-.89,1.05-2.74.81-3.2-.73-1.27-1.7-1.67-3.23-1.33-.67.14-1.29.59-2.17,1.53-2.92,3.15-5.87,6.28-8.81,9.4-3.51,3.73-7.15,7.59-10.67,11.42-.85.92-1.78,1.87-3.1,2.52-.27.13-.55.19-.82.19Z"/>
    </g>
  </g>
</svg>